<svg version="1.1" id="Layer_1" xmlns="http://www.w3.org/2000/svg" xmlns:xlink="http://www.w3.org/1999/xlink" x="0px" y="0px"
	 width="100%" viewBox="0 0 992 992" enable-background="new 0 0 992 992" xml:space="preserve">
<path fill="#000000" opacity="1.000000" stroke="none" 
	d="
M169.231201,520.847168 
	C167.276291,535.501892 167.867432,549.441162 173.939926,562.709229 
	C174.821213,564.634766 176.183807,566.431030 177.651047,567.976318 
	C179.905762,570.350952 181.918732,571.365295 184.962952,568.109741 
	C191.105850,561.540344 198.135254,561.062073 202.220764,566.155640 
	C205.921417,570.769348 203.949585,577.145569 196.369644,581.626404 
	C190.587143,585.044617 189.834381,590.635071 188.708542,595.957336 
	C184.413269,616.262939 196.878754,640.241272 214.554733,647.747620 
	C217.015610,648.792664 219.472015,649.666199 222.212830,649.704468 
	C226.273590,649.761292 228.885635,651.788147 229.203964,655.948914 
	C229.485291,659.626099 226.460541,661.927490 221.840317,662.375000 
	C205.699646,663.938293 194.676071,655.819824 185.815369,643.545776 
	C174.241745,627.513550 169.558472,609.976562 174.292175,590.397644 
	C174.589401,589.168213 175.019531,587.889038 174.173981,586.566711 
	C163.879227,600.496033 150.489471,611.681152 140.888214,626.098938 
	C132.779602,638.275208 124.341812,650.286255 121.382835,664.978271 
	C119.547760,674.089722 123.759552,681.132507 132.482880,684.591064 
	C142.524277,688.572266 153.026810,688.597778 163.637222,689.119568 
	C172.833023,689.571838 181.746277,688.589600 190.789886,687.763123 
	C203.913620,686.563782 216.551559,683.257935 229.198715,679.866089 
	C233.834991,678.622559 238.390915,676.888611 243.235809,676.704468 
	C246.400085,676.584229 247.871017,675.269348 247.645401,672.113525 
	C247.278397,666.980225 250.670395,664.633545 254.816605,664.143921 
	C258.904907,663.661316 261.287720,666.459717 262.370300,670.532593 
	C263.808380,675.942932 275.038544,683.744080 280.588470,683.611389 
	C282.080048,683.575745 283.003204,682.755249 284.050598,681.903442 
	C287.929291,678.749146 292.020508,678.941589 294.724274,682.911499 
	C295.987579,684.766357 296.892548,684.960876 298.986481,684.883179 
	C304.345978,684.684143 309.448303,683.156555 314.701965,682.480103 
	C320.203033,681.771606 323.424316,677.253357 327.537720,674.297180 
	C333.510681,670.004517 334.444977,669.744141 340.724579,673.594299 
	C341.776794,674.239380 342.733521,674.615234 343.984894,674.339355 
	C357.898865,671.271790 369.972260,675.287354 380.396210,684.436829 
	C391.727203,694.382507 404.716980,695.946472 419.039734,693.871887 
	C447.081787,689.810364 475.064575,684.709961 503.633606,686.631104 
	C507.626251,686.899536 511.460266,685.295105 515.520020,685.606873 
	C519.131042,685.884216 521.749573,687.182922 522.212952,690.906372 
	C522.663940,694.529663 520.860352,697.102661 517.198608,697.771118 
	C509.722076,699.135925 502.419128,701.458435 494.677979,701.377197 
	C475.050995,701.170959 455.675720,703.493835 436.388123,707.065063 
	C423.516296,709.448425 410.431885,710.325684 397.358856,709.249512 
	C386.846191,708.384094 378.362213,702.707092 370.377777,696.314087 
	C366.973602,693.588440 363.198669,691.550232 359.356781,689.555298 
	C354.556122,687.062561 349.930267,688.866089 345.314972,689.969971 
	C343.369843,690.435120 343.370728,692.392944 343.339539,694.120178 
	C343.051575,710.076050 343.951080,725.945251 346.057129,741.780823 
	C346.778412,747.204041 346.716644,752.668579 349.185547,757.763733 
	C351.210358,761.942444 349.230896,764.891602 345.441742,766.565979 
	C341.521149,768.298462 338.851349,765.870911 337.509888,762.679138 
	C334.630951,755.829285 331.904419,748.905762 330.623749,741.485168 
	C328.319489,728.133606 328.656708,714.680298 328.663361,701.231018 
	C328.664307,699.272034 328.663483,697.313049 328.663483,694.897278 
	C322.714203,696.161316 317.425812,697.368042 312.102539,698.393616 
	C306.244568,699.522217 300.326569,700.319519 294.351562,700.316467 
	C291.804718,700.315125 290.096375,701.043152 288.561859,703.264832 
	C275.431366,722.274719 263.790863,742.191284 252.392883,762.257874 
	C251.838669,763.233643 251.576340,764.426270 251.393326,765.552856 
	C250.629791,770.252686 248.089981,772.669800 244.433945,772.060852 
	C239.814743,771.291504 236.884277,767.273071 237.867783,762.558228 
	C239.163422,756.347107 241.511551,750.483948 244.689163,744.989319 
	C253.590088,729.598022 262.820435,714.415466 273.410675,700.102295 
	C273.874878,699.474854 274.024139,698.614441 274.415680,697.619629 
	C267.562317,694.264771 260.615204,691.412109 255.571762,685.931274 
	C241.230133,694.368652 225.352615,696.596069 209.956741,700.323914 
	C190.694534,704.987732 171.055283,704.782715 151.463379,704.219116 
	C142.703873,703.967163 133.735458,702.679016 125.866936,698.691772 
	C109.462013,690.378845 102.618607,678.996765 106.490593,660.563232 
	C109.525223,646.116089 117.338707,633.883179 125.197533,621.752808 
	C132.611008,610.309814 141.313934,599.832092 150.838684,590.100769 
	C154.522293,586.337280 159.159683,583.575745 162.129791,578.980530 
	C163.421738,576.981750 163.463669,575.518494 162.361023,573.554382 
	C156.481613,563.081665 154.072052,551.809570 153.523560,539.802979 
	C152.639526,520.450989 155.559845,502.035217 164.628250,484.814026 
	C167.958008,478.490692 171.890457,472.556976 177.151413,467.556396 
	C179.905716,464.938354 183.066132,463.294189 186.577057,462.158813 
	C189.913376,461.079926 193.100052,461.963776 195.197128,464.431122 
	C196.943130,466.485413 198.021744,469.262238 196.718201,472.310303 
	C195.318604,475.582977 192.883209,476.670410 189.537491,476.363495 
	C187.357651,476.163483 185.752960,477.051971 184.459198,478.864227 
	C175.568878,491.317871 170.983337,505.327576 169.231201,520.847168 
z"/>
<path fill="#000000" opacity="1.000000" stroke="none" 
	d="
M545.506348,263.547119 
	C529.614441,252.562439 512.742004,244.866882 494.051117,240.953079 
	C472.539459,236.448593 455.339233,242.740448 441.429352,259.562256 
	C437.920990,263.805084 434.532166,268.044373 431.771667,272.778778 
	C430.777679,274.483551 429.406586,276.140686 429.426758,278.221222 
	C429.472778,282.957428 427.342041,285.753601 422.610046,286.502808 
	C421.333801,286.704865 420.770630,287.744781 420.054260,288.691223 
	C418.652313,290.543335 417.146210,292.311554 415.008392,293.434448 
	C411.660492,295.193054 408.118958,296.614502 404.663422,294.347076 
	C401.161072,292.048920 401.594849,288.463745 402.997437,285.095276 
	C381.756012,271.803833 321.959473,283.226562 296.804901,305.246216 
	C296.755463,307.513184 299.153778,308.612640 299.398010,310.964447 
	C300.221436,318.894653 295.239563,324.708374 287.232208,324.214966 
	C283.126312,323.961945 278.832214,323.293427 275.601196,320.423157 
	C272.982300,318.096710 270.327484,318.181427 267.261749,318.864685 
	C244.511551,323.935181 226.142380,335.988159 211.290115,353.732941 
	C198.807602,368.646454 188.963531,385.069824 182.722031,403.547791 
	C179.954636,411.740692 178.153595,420.234589 177.634689,428.800934 
	C177.231506,435.457062 179.323456,441.941711 183.512695,447.398926 
	C185.971405,450.601807 186.292450,453.834015 183.823624,456.920990 
	C181.205292,460.194885 178.143326,459.088196 174.899094,457.430573 
	C165.594193,452.676300 163.384094,443.950195 162.781540,434.884369 
	C161.606827,417.209930 166.915359,400.854828 173.997910,384.879364 
	C182.367920,365.999908 193.411102,348.974854 208.227615,334.601105 
	C226.192291,317.173218 247.063446,305.265686 272.458496,302.594208 
	C274.518158,302.377533 276.178558,301.397461 277.758850,300.068481 
	C299.424957,281.847595 324.343384,270.951019 352.434143,267.666443 
	C372.037048,265.374268 391.556183,265.356842 410.267761,273.058167 
	C413.102448,274.224854 413.624573,272.296783 414.656189,270.552521 
	C420.075806,261.388855 426.207336,252.807465 433.609192,245.046326 
	C451.929749,225.836533 474.103851,220.723679 499.242889,226.714203 
	C522.579956,232.275360 543.293823,243.171021 561.312622,259.041626 
	C564.058960,261.460510 566.771057,262.193848 570.357605,261.391663 
	C585.874207,257.921112 601.180237,253.489822 616.915222,251.015503 
	C638.406067,247.636078 659.715759,247.743927 679.471802,258.015564 
	C690.848206,263.930389 699.871765,272.552765 699.365662,287.122467 
	C699.348450,287.618774 699.380554,288.125793 699.468750,288.613495 
	C699.524414,288.920837 699.727600,289.201477 700.063843,289.919556 
	C712.472534,288.625793 724.527283,290.471008 736.286377,295.404022 
	C746.844849,299.833405 756.143799,306.127716 765.101135,312.981567 
	C782.030945,325.935486 796.141235,341.598969 806.339294,360.295685 
	C813.700806,373.792053 820.676636,387.690857 820.391357,403.852234 
	C820.244751,412.153748 816.768677,418.505310 810.394775,423.510223 
	C808.052246,425.349640 805.555603,425.856262 803.111816,423.870728 
	C800.852966,422.035370 798.456787,419.537567 800.292664,416.653503 
	C809.631653,401.983124 803.307007,388.559265 797.168640,375.257996 
	C791.208618,362.343231 782.653503,351.204865 772.927673,340.795258 
	C761.447632,328.508148 748.279785,318.821106 733.367004,311.122437 
	C721.178162,304.829956 708.677979,304.069122 695.617188,306.733917 
	C693.832214,307.098083 692.037048,307.427612 690.273132,307.877350 
	C685.625488,309.062317 681.449646,308.098663 678.858826,304.058472 
	C676.177795,299.877716 677.374451,295.513367 680.750610,292.254761 
	C685.009216,288.144501 684.116272,284.051392 681.744446,279.627289 
	C679.923828,276.231262 676.738647,274.214050 673.628601,272.447296 
	C659.471436,264.404785 644.015564,263.195068 628.254150,264.917694 
	C611.450073,266.754272 595.185120,271.668427 578.497192,274.180145 
	C574.831787,274.731812 573.143677,275.711731 573.234985,279.628754 
	C573.312439,282.953949 571.632874,285.764404 568.576904,287.329590 
	C565.197876,289.060181 560.318115,289.516479 559.527344,285.855927 
	C558.252502,279.953705 550.414001,277.590942 552.298462,270.048523 
	C552.864624,267.782837 548.176270,265.779999 545.506348,263.547119 
z"/>
<path fill="#000000" opacity="1.000000" stroke="none" 
	d="
M561.674316,516.602051 
	C544.458862,541.861572 526.164124,565.869507 507.475098,589.583862 
	C500.898590,597.928772 494.159637,606.134705 486.514038,613.547302 
	C481.987549,617.935913 478.814606,618.377625 474.708191,615.148560 
	C471.048584,612.270874 470.608185,607.888794 473.587738,603.112488 
	C490.980042,575.231812 504.209320,545.374207 516.117126,514.828857 
	C527.158447,486.506073 537.153931,457.821808 546.951904,429.062012 
	C549.453796,421.718201 551.380371,414.184204 552.166199,406.089264 
	C544.836914,407.404327 539.163269,411.540802 533.681702,415.704987 
	C526.003174,421.538239 518.834656,427.993225 513.393066,436.122253 
	C511.099426,439.548645 506.241486,440.212219 502.835907,437.722229 
	C499.149506,435.026917 498.506134,431.301666 501.726349,427.845062 
	C512.798523,415.960205 523.862427,403.942474 538.299011,396.013916 
	C544.436218,392.643341 550.897888,388.982880 558.539673,391.625702 
	C564.195679,393.581726 567.025757,397.503479 567.364929,403.550079 
	C567.810730,411.495544 566.057556,419.095215 563.669067,426.523895 
	C553.307678,458.749664 540.977844,490.266510 529.029297,521.919250 
	C525.823059,530.412842 522.545898,538.879700 519.290344,547.387390 
	C521.306580,548.196838 521.805725,546.955322 522.435486,546.076660 
	C541.279297,519.787231 559.995789,493.404968 579.067627,467.282104 
	C582.020813,463.237152 585.003479,458.967438 589.569397,456.114197 
	C598.101624,450.782318 605.549133,454.332947 606.306885,464.454437 
	C606.772217,470.669189 605.351990,476.710083 603.966187,482.644531 
	C598.693420,505.224426 593.023865,527.716064 588.815552,550.528503 
	C586.804810,561.428284 585.122314,572.393250 584.092957,584.667786 
	C590.959656,571.241699 595.225769,558.083374 599.695374,545.002502 
	C600.820923,541.708435 602.102844,538.465576 603.384949,535.227722 
	C605.225403,530.579712 608.882263,527.629700 613.661316,527.970398 
	C618.359924,528.305420 621.009216,532.106262 622.165405,536.634460 
	C624.183350,544.538025 624.394897,552.685547 625.353760,560.732727 
	C626.959045,574.205688 628.382019,587.710693 632.231140,600.802002 
	C632.566833,601.943665 632.923950,603.008423 634.146729,604.088013 
	C637.509094,600.746094 638.864807,596.315796 640.591858,592.146973 
	C642.307129,588.006714 643.654907,583.715210 645.335938,579.559692 
	C649.329346,569.687805 657.339661,567.130249 666.092346,572.996582 
	C669.672791,575.396240 672.945251,578.251892 676.492615,580.705261 
	C686.526611,587.644958 695.542969,587.147522 704.692322,579.250610 
	C709.299805,575.273743 712.965393,570.714172 714.604309,564.634644 
	C715.827332,560.097778 719.398987,557.871826 722.953064,558.851196 
	C726.687073,559.880127 728.130310,563.460999 726.828857,568.291504 
	C723.316406,581.329163 716.935913,591.764893 703.828552,597.633606 
	C692.097290,602.886108 681.313416,601.830872 670.649231,595.582397 
	C666.792969,593.322998 663.225769,590.570312 659.294922,587.884277 
	C656.178894,592.069763 655.509521,597.123169 653.427795,601.542786 
	C651.163696,606.349487 649.000977,611.123840 645.901184,615.538025 
	C639.095642,625.229187 626.752502,624.554077 621.152954,614.335022 
	C616.753296,606.305786 615.475525,597.382568 613.822083,588.620117 
	C612.262390,580.354309 611.432129,571.950806 610.141235,562.595154 
	C606.637817,571.256836 603.672241,579.217163 600.214844,586.957886 
	C596.837463,594.519531 593.409607,602.105469 587.102234,607.916626 
	C580.864014,613.664124 571.937073,611.339233 569.856201,603.153870 
	C568.665405,598.469788 568.312622,593.639709 568.713806,588.806274 
	C570.884644,562.652588 575.726013,536.949951 581.787964,511.450226 
	C584.078918,501.813232 586.202759,492.136536 588.002380,482.241028 
	C578.131104,492.741089 570.442627,504.861511 561.674316,516.602051 
z"/>
<path fill="#000000" opacity="1.000000" stroke="none" 
	d="
M329.514648,542.450317 
	C339.152161,550.009277 349.976379,551.840088 361.335571,550.206482 
	C381.555054,547.298645 397.751038,536.672913 412.092285,522.712097 
	C420.830383,514.205750 428.723145,505.140350 433.717346,493.810028 
	C440.672150,478.031494 439.736450,462.016510 434.697876,446.176178 
	C426.108154,419.171631 406.793701,403.551239 379.687408,397.664978 
	C361.172058,393.644257 344.132477,399.111145 328.612671,409.203491 
	C307.203735,423.125458 292.320526,442.169037 286.038116,467.145874 
	C282.973511,479.329681 283.826141,491.892334 285.073273,504.315277 
	C285.601807,509.579865 286.654541,514.790161 287.262024,520.049072 
	C287.761292,524.371094 284.688293,529.177734 281.315430,529.155640 
	C276.999695,529.127319 275.360413,526.532654 274.376221,522.293823 
	C270.078308,503.782471 269.990509,485.002777 270.876801,466.268982 
	C271.425995,454.660583 276.543976,444.140289 282.813873,434.403137 
	C297.239197,412.000610 315.913391,394.440430 341.558441,385.801392 
	C365.854889,377.616669 389.424957,380.207092 411.479828,393.440094 
	C433.089081,406.405701 446.687836,425.245728 451.602783,450.128052 
	C457.050903,477.709564 451.872498,502.341583 432.545380,523.711304 
	C420.830109,536.664673 407.961121,547.940796 392.537689,556.076294 
	C380.234711,562.565796 367.256744,566.029541 352.998993,565.617249 
	C342.316650,565.308289 332.566895,563.159302 323.677032,557.528076 
	C311.666351,549.919861 305.857025,538.347229 303.302551,524.691895 
	C299.442902,504.059357 301.589996,484.316986 311.938751,465.891266 
	C319.713196,452.049011 332.736237,446.397552 347.780945,444.744415 
	C357.333832,443.694702 366.682526,445.021484 375.577271,448.874481 
	C392.481232,456.196869 397.622162,470.258667 390.884735,486.898010 
	C385.882294,499.252441 375.919495,506.890717 363.645416,511.589142 
	C360.053741,512.963989 356.722473,512.930115 354.595398,509.054840 
	C352.511200,505.257660 354.166077,502.229431 357.017944,499.809814 
	C360.303009,497.022552 363.722900,494.357208 367.299103,491.959320 
	C371.919006,488.861633 374.934509,484.584320 376.987122,479.604004 
	C379.637115,473.174286 378.417572,468.792664 372.670166,465.029480 
	C359.647888,456.502960 329.342194,457.334717 321.794922,480.867767 
	C316.869995,496.224121 315.873932,511.386108 319.603577,526.905518 
	C321.065216,532.987549 324.310028,538.199585 329.514648,542.450317 
z"/>
<path fill="#000000" opacity="1.000000" stroke="none" 
	d="
M822.576111,463.357391 
	C819.492432,456.644012 816.173950,450.581055 810.307922,446.300568 
	C807.323914,444.123077 806.518188,440.944885 808.739868,437.998016 
	C811.000977,434.998779 814.281006,433.747650 817.922913,436.022247 
	C826.661560,441.480011 831.467712,449.949036 835.293213,459.098450 
	C838.910889,467.750488 840.768616,476.951569 841.122559,486.177643 
	C841.546448,497.226654 840.183533,508.190491 830.859924,516.137878 
	C828.796997,517.896240 828.589233,519.431396 829.984070,522.097229 
	C836.445679,534.446350 842.910889,546.828491 844.609314,561.015503 
	C846.184387,574.171509 845.768860,587.156067 841.987366,599.927490 
	C840.253174,605.784790 838.297058,611.567993 835.537964,617.171204 
	C847.934387,625.780029 860.082275,634.107544 872.112244,642.602112 
	C883.510620,650.650696 895.528381,657.779358 906.696594,666.178162 
	C910.238525,668.841797 911.182312,671.774963 909.520264,675.631531 
	C907.790527,679.645264 904.285950,678.476013 901.290710,677.966187 
	C893.456421,676.632568 887.610229,671.332886 881.302673,667.178101 
	C866.344299,657.325012 851.704773,646.988647 836.897766,636.904297 
	C834.049988,634.964844 831.025635,633.284668 827.811707,631.319031 
	C821.393921,640.351807 813.913940,647.869995 805.505066,654.384888 
	C797.135071,660.869690 787.235046,664.457825 777.411255,668.020569 
	C773.907654,669.291199 770.861572,668.123108 769.262329,664.353027 
	C767.477356,660.145142 770.110413,657.845032 773.225647,656.489746 
	C783.542114,652.001587 792.605530,645.560425 801.065002,638.382019 
	C807.270264,633.116455 814.078369,627.887390 814.920044,618.617432 
	C815.027588,617.432678 815.910400,615.683533 816.865295,615.315796 
	C822.210266,613.257629 822.879333,608.142944 824.660950,603.849548 
	C835.678772,577.297363 830.065674,552.536255 816.396484,528.659485 
	C810.769836,518.830994 811.163269,514.799377 819.533386,507.493561 
	C827.586304,500.464600 828.137756,491.372101 827.335632,481.966980 
	C826.802490,475.715485 824.961060,469.622620 822.576111,463.357391 
z"/>
<path fill="#000000" opacity="1.000000" stroke="none" 
	d="
M734.698425,659.717957 
	C735.836670,655.036804 739.271484,655.593628 742.401917,655.718811 
	C745.209534,655.830994 747.413452,656.738708 748.540710,659.801025 
	C749.726868,663.023193 749.271179,665.610352 746.975403,668.038940 
	C738.625061,676.872253 727.576660,681.312134 716.904236,686.253723 
	C701.163513,693.541992 684.425415,695.663452 667.289185,694.250977 
	C660.230286,693.669067 653.137024,692.445251 646.285339,690.650696 
	C634.985901,687.691223 624.029175,688.310181 613.072083,691.925110 
	C600.248596,696.155701 586.964233,698.123413 573.589478,699.205627 
	C564.111633,699.972534 554.806030,697.653015 545.496094,696.094543 
	C540.443054,695.248718 535.428162,694.136169 530.353210,693.470520 
	C526.115479,692.914856 523.757324,690.431580 524.074707,686.568848 
	C524.432190,682.218079 527.963013,681.308350 531.884949,681.643005 
	C543.447388,682.629822 554.973267,683.753906 566.629028,683.799988 
	C579.889954,683.852417 592.867371,682.532959 605.320129,678.141602 
	C620.456482,672.804016 635.446045,673.089539 650.702454,677.273071 
	C659.166260,679.593933 667.861877,681.504211 676.613953,681.495544 
	C688.784668,681.483398 700.560730,678.724976 711.908813,674.100525 
	C718.560852,671.389771 724.760864,667.869995 731.043701,664.482666 
	C732.741821,663.566956 734.647400,662.550903 734.698425,659.717957 
z"/>
<path fill="#000000" opacity="1.000000" stroke="none" 
	d="
M761.738770,708.903687 
	C758.235291,694.029907 754.157959,679.716125 751.260803,665.106750 
	C750.440979,660.972595 750.764404,657.668274 754.804138,655.959351 
	C759.134460,654.127502 762.962708,656.417236 765.057495,661.291443 
	C769.207947,670.948486 770.416138,681.400024 773.309509,691.396423 
	C775.471130,698.864624 777.288147,706.432068 779.320557,713.938538 
	C779.829651,715.818848 780.182556,717.774109 782.033264,719.054321 
	C784.924561,721.054260 786.266846,723.969421 784.994568,727.286804 
	C783.797485,730.408020 781.890564,733.139404 777.880554,733.335205 
	C773.947632,733.527161 770.593750,732.702454 768.552063,729.008850 
	C766.287292,724.911804 765.283569,720.342773 763.806213,715.953430 
	C763.068359,713.761169 762.463074,711.524292 761.738770,708.903687 
z"/>
<path fill="#000000" opacity="1.000000" stroke="none" 
	d="
M652.090576,545.278809 
	C646.436035,543.404541 642.838623,538.518372 642.672180,533.030457 
	C642.515808,527.875183 645.132080,525.339905 650.246460,525.690674 
	C654.331543,525.970764 659.993225,531.801270 660.268982,536.012024 
	C660.558594,540.435730 657.626221,543.932922 652.090576,545.278809 
z"/>
</svg>