<svg version="1.1" id="Layer_1" xmlns="http://www.w3.org/2000/svg" xmlns:xlink="http://www.w3.org/1999/xlink" x="0px" y="0px"
	 width="100%" viewBox="0 0 992 992" enable-background="new 0 0 992 992" xml:space="preserve">
<path fill="#000000" opacity="1.000000" stroke="none" 
	d="
M168.305725,524.272827 
	C168.102036,535.721985 167.528793,546.728271 171.261597,557.355347 
	C172.653366,561.317749 174.321136,565.136841 177.258133,568.197021 
	C179.915710,570.966125 182.728210,571.950134 185.695816,568.386353 
	C187.303299,566.455933 189.334656,564.917664 191.691605,563.984253 
	C195.273621,562.565491 198.636154,562.976868 201.256744,565.976318 
	C203.890366,568.990601 203.826859,572.334412 201.829361,575.692627 
	C200.350525,578.178833 198.344864,580.288818 195.848679,581.610901 
	C192.431625,583.420654 190.981018,586.325317 189.851822,589.760193 
	C182.602325,611.812256 192.598175,632.008545 207.006744,643.856201 
	C211.109421,647.229675 215.857895,649.647522 221.519531,649.882263 
	C225.088974,650.030273 228.168640,651.702209 228.221085,655.873108 
	C228.278091,660.406250 224.904160,661.900879 221.190720,662.033569 
	C213.257507,662.316833 205.322037,661.502625 198.965912,656.239685 
	C182.181183,642.341614 172.450668,624.770630 172.911514,602.527893 
	C173.029709,596.824036 174.458130,591.147278 175.345642,585.037903 
	C157.533951,605.753174 138.076981,624.597656 126.420403,649.390991 
	C124.145210,654.230286 122.164894,659.123657 121.070969,664.388977 
	C119.366707,672.591980 121.809288,678.720520 128.949539,683.077148 
	C137.823990,688.492004 147.871643,689.117310 157.832703,689.612183 
	C184.745148,690.949280 210.836014,686.179382 236.443665,678.336243 
	C240.263123,677.166382 244.230957,676.977539 247.833405,676.198120 
	C248.908752,674.592712 247.885086,673.303467 248.019928,672.012024 
	C248.431534,668.070251 250.440140,665.379333 254.455536,664.875122 
	C258.153076,664.410767 260.206848,666.414429 261.311371,669.973267 
	C263.349731,676.540833 275.115814,684.644897 281.546204,684.302612 
	C282.970367,684.226929 283.448547,683.191956 284.289246,682.433594 
	C287.900452,679.176331 290.898163,679.290100 294.073822,683.111023 
	C295.469666,684.790466 296.725647,685.979614 299.045013,685.556641 
	C303.618958,684.722778 308.205597,683.958374 312.789093,683.177429 
	C317.847107,682.315613 322.058655,680.125916 325.798035,676.432922 
	C331.824707,670.480957 333.398224,670.444824 341.048584,674.117371 
	C342.855011,674.984436 344.610077,674.672241 346.407074,674.312500 
	C355.657532,672.460693 364.281342,673.936157 372.170135,679.205261 
	C374.523041,680.776794 377.047729,682.195679 379.085266,684.117554 
	C390.927673,695.287598 405.415680,696.458984 420.263702,694.249207 
	C448.894897,689.988159 477.432281,685.209351 506.555695,686.619568 
	C509.010345,686.738464 511.494934,685.985107 513.977417,685.842957 
	C517.673340,685.631348 520.766235,686.820129 521.421875,690.865540 
	C522.042603,694.695679 519.747437,696.636230 516.176270,697.462524 
	C507.588531,699.449646 499.025726,701.704285 490.112366,701.294678 
	C469.140594,700.330933 448.752136,704.783875 428.219879,707.854553 
	C418.621948,709.289917 408.977692,709.862793 399.345642,709.167847 
	C389.042877,708.424500 380.416931,703.412109 372.288757,697.302917 
	C366.222015,692.743164 360.376221,687.357361 351.821442,688.322693 
	C351.160980,688.397217 350.484802,688.338074 349.826111,688.421631 
	C342.617523,689.336609 341.935028,689.973511 342.414093,697.205444 
	C343.567291,714.613953 343.658752,732.107239 346.337494,749.394348 
	C346.791962,752.327271 347.818115,755.182373 348.704102,758.034912 
	C349.833221,761.670166 348.725555,764.435120 345.269318,765.769409 
	C341.893494,767.072632 339.390839,765.335510 337.955872,762.294556 
	C333.001556,751.795288 330.439331,740.731262 329.594269,729.127197 
	C328.773468,717.856689 328.715363,706.572083 328.646118,695.199890 
	C325.119751,694.389465 322.327850,695.816040 319.527710,696.475952 
	C311.390472,698.393738 303.221771,699.862549 294.836548,699.339417 
	C291.785858,699.149170 289.935883,700.372070 288.266205,702.815186 
	C275.190186,721.947998 263.551453,741.953552 252.100723,762.074341 
	C251.544006,763.052551 251.274338,764.242371 251.079636,765.369690 
	C250.418594,769.197144 248.359039,771.552124 244.332001,771.192505 
	C239.983490,770.804138 238.467422,767.757935 238.661133,763.798340 
	C238.986938,757.138489 241.724213,751.218872 244.901443,745.541992 
	C253.287201,730.558716 262.636749,716.176636 272.431396,702.080383 
	C273.366241,700.735046 274.217743,699.331726 275.432556,697.453491 
	C267.859985,694.124146 260.517365,691.014465 255.156906,684.846375 
	C244.032608,693.411438 230.690765,694.864075 218.087845,698.118774 
	C197.829468,703.350525 177.100174,705.086487 156.214432,704.147522 
	C146.758377,703.722473 137.331314,702.646301 128.329254,699.239929 
	C110.418777,692.462769 102.358940,676.921936 107.358223,658.521912 
	C111.766548,642.296814 120.903633,628.573669 130.479233,615.107910 
	C138.616318,603.665100 148.036346,593.364380 158.331116,583.804993 
	C164.829437,577.770874 164.673370,577.551697 160.769135,569.969849 
	C156.737152,562.139771 154.841644,553.647949 154.043686,545.050842 
	C151.605270,518.779724 156.932968,494.397217 172.894547,472.856689 
	C175.412262,469.458984 178.523041,466.753448 182.070206,464.488068 
	C184.911667,462.673340 188.035004,462.176788 191.184601,462.958496 
	C194.671249,463.823883 196.418228,466.349579 196.273758,469.998901 
	C196.142517,473.314484 194.227859,475.831970 191.113022,475.622437 
	C186.511993,475.312897 184.552597,478.118317 182.489395,481.140259 
	C175.305984,491.661804 171.637421,503.529816 169.367493,515.907349 
	C168.889206,518.515320 168.657669,521.168579 168.305725,524.272827 
z"/>
<path fill="#000000" opacity="1.000000" stroke="none" 
	d="
M325.252777,274.057434 
	C354.622742,264.753235 383.603882,263.136810 412.980927,274.234802 
	C417.951538,265.829529 423.195068,257.376251 429.756439,249.829102 
	C445.121033,232.156219 463.897095,222.309692 487.827271,225.020233 
	C506.665985,227.154053 523.821411,234.363373 540.007629,243.943924 
	C548.043152,248.700134 555.672241,254.092148 562.468689,260.543732 
	C564.367004,262.345734 566.126953,262.643127 568.743164,262.098877 
	C585.494751,258.614258 601.919678,253.611176 618.890869,251.171127 
	C639.312256,248.234970 659.438171,248.461441 678.410889,257.957611 
	C688.290100,262.902283 696.040344,269.923737 698.697327,281.264618 
	C698.773132,281.588348 698.861084,281.913055 698.983276,282.221527 
	C700.007751,284.807343 697.802551,288.437775 700.522644,290.110931 
	C702.907410,291.577820 705.992981,289.714813 708.822449,289.739136 
	C724.725098,289.875946 738.695618,295.713379 751.748474,304.187531 
	C781.543884,323.531158 803.817810,349.098938 816.118713,382.760925 
	C819.275818,391.400482 821.713074,400.222412 819.280762,409.589966 
	C817.844849,415.120087 815.126770,419.745667 810.254944,422.894623 
	C808.008545,424.346619 805.582153,424.823639 803.249817,423.098450 
	C800.797791,421.284576 800.369080,418.761597 801.122375,415.943939 
	C801.207947,415.624084 801.314758,415.292847 801.489929,415.016449 
	C808.073303,404.631195 805.507446,394.204071 801.350464,383.948212 
	C787.943298,350.871124 764.729797,326.814636 733.215454,310.500854 
	C720.628113,303.984863 707.455627,303.303101 693.925964,306.745361 
	C691.117004,307.460052 688.298645,307.482574 685.491455,307.283905 
	C679.203003,306.838837 676.110535,300.789093 679.258118,295.301392 
	C679.588684,294.725067 679.927551,294.126068 680.382202,293.652435 
	C688.019653,285.695984 683.602417,279.519287 677.543396,274.747620 
	C668.443176,267.580872 657.591003,265.176544 646.298828,264.307800 
	C626.885742,262.814331 608.364014,268.028290 589.643921,271.786316 
	C584.132446,272.892731 578.581543,273.802979 572.883301,274.833008 
	C572.586914,277.717010 573.636353,280.594574 572.029724,283.194244 
	C570.132568,286.263916 567.525024,288.350372 563.873352,287.901306 
	C560.317749,287.464020 558.323242,284.901550 558.103394,281.363037 
	C557.997864,279.664307 557.630798,278.661682 556.011597,277.891907 
	C553.691528,276.788940 552.394165,274.700806 553.037231,272.152618 
	C553.726868,269.420166 552.181030,268.220245 550.411804,266.846893 
	C531.905518,252.481003 511.269623,242.870758 487.995026,239.557709 
	C469.190094,236.880905 454.072083,244.216431 441.944336,258.172089 
	C436.197021,264.785614 430.078430,271.331940 428.839172,280.679932 
	C428.700653,281.724731 427.861389,283.315094 427.050659,283.529022 
	C421.666077,284.949921 419.459595,290.231689 415.212128,292.908173 
	C412.108887,294.863617 408.612091,296.635223 405.001801,293.927124 
	C401.643921,291.408325 402.839050,288.036896 403.815521,284.887878 
	C382.429626,271.293518 320.287872,283.158661 296.131531,305.344452 
	C295.960358,306.694458 297.130005,307.369232 297.677856,308.350006 
	C301.160614,314.585175 298.187866,321.820038 291.218903,323.023315 
	C285.381775,324.031128 279.478210,323.863037 274.885681,319.168365 
	C273.397430,317.647003 271.963837,317.615814 269.960815,317.972412 
	C246.059570,322.227722 226.819931,334.738770 211.485825,352.827667 
	C195.617096,371.547180 183.719284,392.611481 178.876205,417.193207 
	C176.697067,428.253784 176.544403,438.633087 183.463760,448.204834 
	C185.370087,450.841919 185.992981,453.713745 183.363953,456.364410 
	C180.641449,459.109314 177.656921,458.505676 174.667358,456.844086 
	C167.766815,453.008789 165.164459,446.445129 163.690582,439.251190 
	C160.835297,425.314789 164.382370,411.997162 168.846069,399.143158 
	C178.982697,369.952942 195.053680,344.609924 219.649429,325.230804 
	C235.315186,312.887695 253.022324,305.391174 272.765076,302.720032 
	C274.478027,302.488312 275.954315,302.146912 277.276642,300.951080 
	C291.118134,288.433899 307.642365,280.676422 325.252777,274.057434 
z"/>
<path fill="#000000" opacity="1.000000" stroke="none" 
	d="
M554.875610,525.824097 
	C534.639404,553.979553 514.489929,581.750122 491.864990,607.610779 
	C489.894257,609.863403 487.858551,612.103516 485.588287,614.038940 
	C482.544037,616.634155 478.975250,617.458374 475.493958,614.981689 
	C471.754425,612.321289 471.442780,608.558289 473.501251,604.768921 
	C477.953003,596.573975 482.757080,588.569519 487.168945,580.353882 
	C504.952911,547.237305 518.133911,512.166870 530.669312,476.846863 
	C537.900330,456.472473 546.106201,436.407257 551.115173,415.299652 
	C551.816650,412.343842 553.237671,409.335327 552.160522,405.864502 
	C548.744385,405.913605 546.004211,407.412720 543.264465,408.919342 
	C531.529663,415.372467 522.333740,424.770325 513.585693,434.653900 
	C510.222778,438.453369 505.838531,439.485504 502.796021,436.836823 
	C499.625793,434.076813 500.177216,430.135620 504.133545,426.058289 
	C512.596375,417.336700 520.650085,408.192078 530.823853,401.302826 
	C536.089233,397.737335 541.518738,394.494507 547.551025,392.440369 
	C559.169739,388.483917 567.761292,394.738831 567.216187,406.985931 
	C566.897400,414.149414 565.038513,421.111786 562.779419,427.908691 
	C549.702881,467.251801 535.128662,506.042297 519.627808,544.489136 
	C518.576782,547.096008 517.571777,549.721497 517.379883,552.995422 
	C518.802002,551.186096 520.289978,549.424316 521.636230,547.560181 
	C540.070374,522.034729 558.478088,496.490204 576.910645,470.963623 
	C580.425476,466.096069 584.049988,461.286469 588.686829,457.417419 
	C596.202820,451.145905 603.975281,453.988647 605.424744,463.573486 
	C606.807556,472.717041 603.913452,481.427246 601.838501,490.081879 
	C596.259583,513.352295 590.835571,536.650208 586.768738,560.233704 
	C585.418701,568.062500 584.024536,575.950439 584.352417,584.913452 
	C588.055176,579.422119 589.649109,573.878845 591.682556,568.598694 
	C595.450134,558.815857 598.767578,548.860596 602.459167,539.047241 
	C605.347534,531.369080 608.887512,528.158508 613.682068,528.845886 
	C620.375732,529.805542 621.729980,535.140320 622.460632,540.578979 
	C624.184326,553.408752 625.575073,566.283997 627.371765,579.102844 
	C628.605225,587.903442 629.698853,596.795532 633.848572,605.473816 
	C638.263062,600.802063 639.709656,595.289307 641.806763,590.152466 
	C643.629700,585.687378 644.918335,580.995728 647.446960,576.835388 
	C651.245667,570.585327 657.230591,568.896912 663.777283,572.144714 
	C667.559448,574.021118 670.507690,577.026489 673.845093,579.503723 
	C688.661865,590.501404 706.707642,585.318726 713.806824,568.012573 
	C714.564026,566.166687 715.177673,564.232361 716.169434,562.519470 
	C717.541870,560.149231 719.708984,558.905579 722.497986,559.759705 
	C725.417053,560.653748 726.723511,562.890198 726.674683,565.863525 
	C726.412537,581.845276 708.646484,599.449036 692.416077,600.399597 
	C681.779358,601.022583 672.869507,597.447510 664.711365,591.086670 
	C663.054077,589.794495 661.636963,587.996521 658.945435,587.684265 
	C656.687317,590.712280 655.912903,594.517212 654.434937,597.980408 
	C651.562927,604.709839 649.188538,611.706726 643.861145,617.073608 
	C636.210510,624.780884 626.966980,623.443481 621.619141,613.908569 
	C616.525818,604.827454 615.418823,594.668945 613.720032,584.691345 
	C612.419556,577.053406 611.472046,569.355347 610.222717,560.678345 
	C605.977600,571.051697 602.893860,580.851624 598.302063,590.024902 
	C595.766235,595.091003 593.391663,600.252319 589.865723,604.732239 
	C586.105957,609.509399 581.248657,611.369995 576.795044,609.928467 
	C572.517090,608.543823 569.860229,603.989380 569.654358,597.858276 
	C568.825867,573.178406 574.153198,549.287354 579.112854,525.377136 
	C582.280334,510.106964 586.014709,494.954407 589.090210,479.554413 
	C576.913513,494.326996 565.949585,509.893158 554.875610,525.824097 
z"/>
<path fill="#000000" opacity="1.000000" stroke="none" 
	d="
M447.482117,500.276215 
	C428.874908,533.481079 403.043793,557.104248 365.085846,564.631531 
	C352.881866,567.051636 340.508240,565.755127 329.008820,560.103577 
	C316.964142,554.183899 309.148804,544.744751 305.500610,531.821838 
	C300.229553,513.150146 300.828491,494.705963 307.442078,476.447266 
	C314.647888,456.553741 327.771606,446.683899 351.384613,444.776306 
	C359.883789,444.089722 367.906189,446.131714 375.660583,449.453247 
	C391.692841,456.320557 397.711853,470.848419 390.664398,486.746002 
	C385.560242,498.260010 376.308594,505.739899 365.010071,510.762482 
	C361.687775,512.239319 358.007843,512.796936 355.665680,509.013672 
	C353.346619,505.267670 355.366669,502.293610 358.181183,499.849182 
	C360.942047,497.451324 363.871429,495.246338 366.744812,492.979431 
	C371.645966,489.112701 376.008362,484.849579 377.876740,478.619110 
	C379.648102,472.712219 378.454620,468.574982 373.349335,465.147247 
	C357.794922,454.703857 330.205139,458.440247 322.345947,478.705658 
	C315.898376,495.331055 315.137360,512.089539 320.102814,529.060181 
	C323.776917,541.617249 335.736359,549.836243 349.519470,550.750916 
	C365.333405,551.800476 379.621490,547.431030 392.514221,538.829956 
	C411.773987,525.981140 429.695129,510.994873 436.140686,487.883301 
	C447.050323,448.764801 424.326599,405.331818 379.509186,397.433105 
	C349.563995,392.155548 326.521942,405.950684 307.216156,427.197510 
	C298.225555,437.092072 290.790863,448.176300 287.142548,461.361938 
	C282.993835,476.355988 283.244598,491.568115 284.760864,506.848297 
	C285.252075,511.798126 286.557220,516.653625 286.336731,521.691101 
	C286.175873,525.366638 284.605164,527.911560 280.790131,528.086731 
	C277.229034,528.250244 275.346069,525.903198 274.783997,522.585999 
	C272.310883,507.989380 270.470520,493.391754 270.486298,478.481232 
	C270.502747,462.964783 274.355377,448.854370 282.478943,435.871124 
	C297.827423,411.340759 318.208130,392.770477 346.563477,384.699219 
	C389.862427,372.374329 436.890778,398.910461 449.252319,442.247772 
	C454.778809,461.622650 455.577606,480.905090 447.482117,500.276215 
z"/>
<path fill="#000000" opacity="1.000000" stroke="none" 
	d="
M842.984497,594.660645 
	C841.455688,601.420410 839.549866,607.639832 836.686279,613.474304 
	C835.080811,616.745544 835.873108,618.236572 838.831055,620.230774 
	C860.649475,634.939026 882.337524,649.841919 903.981567,664.806519 
	C907.478088,667.223999 911.945374,670.057434 908.965393,675.207397 
	C906.039795,680.263245 901.284119,678.131836 897.413391,676.268127 
	C885.361206,670.464905 874.714417,662.383606 863.710205,654.893066 
	C853.522217,647.958130 843.295959,641.076111 833.222229,633.978210 
	C829.417236,631.297119 827.098145,631.150757 824.009155,635.445801 
	C812.835388,650.982544 797.393860,660.795532 779.459473,666.928467 
	C776.507385,667.937988 773.579163,668.521240 771.167114,665.787659 
	C768.360901,662.607300 769.712646,658.251587 774.418457,656.223755 
	C786.225037,651.136108 796.310364,643.547363 805.442017,634.708130 
	C810.109497,630.190125 815.617554,625.931213 815.750549,618.386353 
	C815.763306,617.665955 816.369751,616.751587 816.974854,616.276550 
	C826.381836,608.891235 827.251160,597.693726 829.559998,587.332092 
	C833.728394,568.625610 828.538452,551.420044 819.924866,534.947388 
	C818.612671,532.437927 817.268433,529.942383 816.047241,527.388672 
	C811.834778,518.579895 812.536926,513.699951 819.939453,507.539307 
	C829.054504,499.953735 828.495789,489.865967 827.218445,479.962921 
	C825.552307,467.045624 821.289551,455.050720 810.931091,446.086609 
	C808.428467,443.920807 807.748840,440.839630 809.900208,437.994293 
	C812.228821,434.914673 815.426819,435.082825 818.394348,436.938904 
	C826.563110,442.048126 830.965271,450.085815 834.516907,458.626404 
	C840.068054,471.975067 841.898560,485.857910 839.491821,500.153290 
	C838.471191,506.215790 835.556824,511.524994 831.038147,515.692871 
	C828.296692,518.221680 828.285034,520.393372 830.014771,523.499939 
	C836.921814,535.904785 842.837036,548.679688 844.721252,563.013306 
	C846.108826,573.568848 844.997925,583.913635 842.984497,594.660645 
z"/>
<path fill="#000000" opacity="1.000000" stroke="none" 
	d="
M548.254456,683.667114 
	C570.446167,684.699524 591.926819,684.031433 612.801819,676.730957 
	C622.767822,673.245728 633.126770,673.982544 643.357300,676.160706 
	C648.717834,677.301880 654.082520,678.426880 659.427185,679.638977 
	C683.906799,685.190552 706.190125,678.989563 727.365601,666.940796 
	C730.935852,664.909363 734.506104,663.086426 736.264648,658.696045 
	C737.618164,655.317078 742.146667,654.832947 745.368591,656.909790 
	C748.418335,658.875732 749.377930,663.148499 747.512268,666.688416 
	C746.479736,668.647400 744.879883,670.119629 743.083130,671.357178 
	C721.451843,686.256165 698.053711,695.700195 671.238037,694.258301 
	C662.431152,693.784729 653.705994,692.345764 645.185364,690.145447 
	C635.035278,687.524414 625.177063,688.030151 615.212830,690.986145 
	C598.559875,695.926392 581.659546,699.417847 564.127014,698.319641 
	C552.490417,697.590698 541.181519,694.686768 529.692932,692.965881 
	C526.686218,692.515503 524.631409,690.136902 525.076111,686.795044 
	C525.545898,683.265137 528.081604,681.543457 531.453796,681.794800 
	C536.911865,682.201660 542.339478,683.017578 548.254456,683.667114 
z"/>
<path fill="#000000" opacity="1.000000" stroke="none" 
	d="
M771.420044,685.743408 
	C773.780151,694.809631 776.051941,703.473083 778.375488,712.122559 
	C779.320435,715.640198 780.267273,719.036438 783.323547,721.640625 
	C785.880188,723.818909 785.229492,726.783752 783.355957,729.301147 
	C780.964233,732.514832 777.905151,734.203125 773.826111,732.699646 
	C770.244385,731.379456 768.223572,728.457581 767.145874,725.062561 
	C760.911011,705.419739 756.177551,685.380310 751.792664,665.261658 
	C750.962402,661.452515 751.706787,657.621948 756.096863,656.325256 
	C760.460449,655.036438 762.815125,657.812256 764.544800,661.445190 
	C768.158447,669.035339 769.218140,677.334473 771.420044,685.743408 
z"/>
<path fill="#000000" opacity="1.000000" stroke="none" 
	d="
M652.896851,544.305420 
	C647.520020,543.402161 642.430359,537.097290 642.917419,532.254211 
	C643.278076,528.668030 645.398071,526.492615 649.013184,526.114685 
	C652.503174,525.750000 658.237732,530.570801 659.166443,534.459351 
	C660.322815,539.301453 658.562256,542.252808 652.896851,544.305420 
z"/>
</svg>